<svg width="131" height="125" viewBox="0 0 131 125" fill="none" xmlns="http://www.w3.org/2000/svg">
<path d="M50.9784 0.589035L51.4544 2.45985L48.7032 9.33054L46.296 9.94297L44.8414 4.22587L43.7294 4.50879L43.2335 2.55948L44.3455 2.27656L43.9128 0.575823L46.1761 0L46.6088 1.70074L50.9784 0.589035ZM47.7171 6.82339L49.198 3.1175L46.9216 3.69665L47.7171 6.82339Z" fill="white"/>
<path d="M38.3976 11.0654C37.5204 11.4841 36.6691 11.5913 35.8436 11.387C35.022 11.1909 34.3324 10.7073 33.7749 9.93629L35.9799 8.88371C36.1845 9.14508 36.427 9.30852 36.7076 9.37403C36.9882 9.43954 37.2828 9.39864 37.5914 9.25132C37.9569 9.07685 38.1876 8.78722 38.2836 8.38241C38.3834 7.98572 38.3015 7.51123 38.0379 6.95896C37.7743 6.40668 37.4549 6.04057 37.0798 5.86061C36.7086 5.68878 36.3402 5.6901 35.9748 5.86456C35.6661 6.01188 35.4491 6.21522 35.3236 6.47458C35.1981 6.73393 35.1726 7.02531 35.2472 7.34871L33.0422 8.40128C32.7933 7.48296 32.849 6.63864 33.2092 5.86833C33.5734 5.10613 34.194 4.51568 35.0712 4.09698C35.7372 3.77908 36.396 3.63413 37.0476 3.66215C37.6949 3.70217 38.2908 3.91634 38.8352 4.30469C39.3796 4.69303 39.8204 5.2405 40.1577 5.94709C40.4988 6.6618 40.6514 7.3469 40.6152 8.00238C40.5748 8.66986 40.3607 9.26573 39.9727 9.78999C39.5886 10.3224 39.0635 10.7475 38.3976 11.0654Z" fill="white"/>
<path d="M31.7218 14.9235C31.0982 15.3346 30.4555 15.5697 29.7937 15.6287C29.1294 15.7002 28.4973 15.5834 27.8973 15.2783C27.2898 14.9781 26.7705 14.5012 26.3396 13.8475C25.9086 13.1939 25.6749 12.5287 25.6384 11.8521C25.5944 11.1804 25.7337 10.5496 26.0562 9.9597C26.3762 9.38225 26.848 8.88795 27.4716 8.4768C28.0952 8.06565 28.7392 7.82434 29.4035 7.75286C30.0728 7.68889 30.7112 7.80698 31.3187 8.10713C31.9187 8.41223 32.4342 8.89162 32.8651 9.5453C33.2961 10.199 33.5336 10.8617 33.5776 11.5333C33.614 12.21 33.4685 12.8395 33.1411 13.4219C32.8185 14.0118 32.3455 14.5123 31.7218 14.9235ZM30.6221 13.2554C30.9903 13.0127 31.2129 12.6719 31.2901 12.233C31.3646 11.8065 31.236 11.3416 30.9041 10.8382C30.5722 10.3348 30.1956 10.0333 29.7743 9.93383C29.3454 9.83927 28.9469 9.91336 28.5787 10.1561C28.2106 10.3988 27.9892 10.7334 27.9146 11.1599C27.8401 11.5863 27.9687 12.0512 28.3006 12.5546C28.6325 13.058 29.0091 13.3595 29.4305 13.459C29.8567 13.566 30.254 13.4982 30.6221 13.2554Z" fill="white"/>
<path d="M22.5754 22.2552L17.5801 16.6171L19.3179 15.0774L20.2221 16.0979C20.0913 15.6246 20.1011 15.147 20.2513 14.6652C20.3949 14.1893 20.6788 13.7634 21.1032 13.3874C21.7498 12.8145 22.4561 12.5735 23.222 12.6644C23.9812 12.7613 24.695 13.1869 25.3634 13.9414L28.264 17.2151L26.5463 18.737L23.8337 15.6754C23.4936 15.2915 23.1303 15.0783 22.744 15.0358C22.3569 15.006 21.9949 15.1403 21.6581 15.4387C21.3079 15.7491 21.1302 16.1049 21.125 16.5063C21.1199 16.9076 21.2994 17.3137 21.6634 17.7246L24.3133 20.7154L22.5754 22.2552Z" fill="white"/>
<path d="M19.1626 26.4905C18.6057 27.151 17.9446 27.4882 17.1794 27.5022C16.4084 27.5231 15.6376 27.2087 14.867 26.5589L11.5232 23.7395L13.0113 21.9747L16.1486 24.6201C16.5339 24.945 16.9202 25.0942 17.3076 25.0676C17.696 25.0537 18.0323 24.8782 18.3166 24.5411C18.6182 24.1833 18.7455 23.802 18.6983 23.3973C18.6452 22.9995 18.4089 22.6236 17.9892 22.2697L14.9344 19.6939L16.4224 17.9292L22.1812 22.7849L20.6931 24.5496L19.6405 23.662C19.8452 24.1172 19.9111 24.5906 19.8379 25.0822C19.759 25.5807 19.5339 26.0501 19.1626 26.4905Z" fill="white"/>
<path d="M10.0477 29.7504L8.38784 28.6629L8.95749 27.7934C9.44083 27.0557 9.9988 26.5982 10.6314 26.4209C11.2666 26.2561 12.0057 26.4499 12.8489 27.0022L15.1636 28.5188L15.7185 27.672L17.3445 28.7373L16.7896 29.5842L18.3366 30.5977L17.0715 32.5286L15.5246 31.515L14.696 32.7797L13.07 31.7144L13.8986 30.4497L11.5499 28.9109C11.3015 28.7482 11.0963 28.6837 10.9343 28.7174C10.7674 28.7587 10.605 28.8998 10.4472 29.1406L10.0477 29.7504Z" fill="white"/>
<path d="M11.844 35.1437C12.1169 35.6118 12.2685 36.1078 12.2988 36.6317C12.3249 37.1636 12.2147 37.6646 11.9683 38.135L9.78008 36.9884L10.0871 36.4025C10.3711 35.8604 10.4769 35.3773 10.4045 34.9533C10.3279 34.5372 10.0145 34.1851 9.46452 33.8968L6.42738 32.3054L7.4988 30.2607L14.1709 33.7569L13.0995 35.8016L11.844 35.1437Z" fill="white"/>
<path d="M13.7215 39.3979C14.0451 39.5338 14.2618 39.7615 14.3717 40.081C14.4898 40.4039 14.4687 40.7563 14.3084 41.1379C14.1481 41.5196 13.9112 41.7813 13.5979 41.923C13.2929 42.0682 12.9786 42.0728 12.655 41.9369C12.3397 41.8044 12.123 41.5767 12.0048 41.2538C11.895 40.9343 11.9202 40.5838 12.0806 40.2021C12.2409 39.8204 12.4736 39.557 12.7786 39.4118C13.0919 39.2701 13.4062 39.2655 13.7215 39.3979ZM10.7899 40.9045L3.84505 37.9872L4.73906 35.859L11.6839 38.7762L10.7899 40.9045Z" fill="white"/>
<path d="M4.71753 48.1267C4.53666 48.0719 4.34508 47.9903 4.14281 47.882L5.65751 42.8822C5.10706 42.7436 4.67342 42.7627 4.35658 42.9394C4.04836 43.1187 3.83554 43.4022 3.71812 43.7898C3.61897 44.1171 3.6186 44.4132 3.71702 44.6781C3.81543 44.943 3.9834 45.149 4.22091 45.2962L3.51248 47.6346C3.03302 47.3859 2.63915 47.0409 2.33088 46.5996C2.03123 46.1609 1.83949 45.6609 1.75567 45.0995C1.68046 44.5407 1.73419 43.9598 1.91684 43.3569C2.1308 42.6507 2.4677 42.0663 2.92754 41.6038C3.39338 41.1525 3.95319 40.8566 4.60697 40.7161C5.26076 40.5756 5.96231 40.6189 6.71165 40.8459C7.46959 41.0756 8.07852 41.4246 8.53843 41.893C9.00434 42.3727 9.30022 42.9325 9.42606 43.5725C9.56052 44.215 9.52077 44.8894 9.30681 45.5957C9.09023 46.3106 8.75333 46.895 8.29611 47.3489C7.83888 47.8028 7.2989 48.0953 6.67618 48.2263C6.05946 48.3686 5.40658 48.3354 4.71753 48.1267ZM5.73056 45.9933C6.20166 46.1455 6.59394 46.1233 6.90738 45.9267C7.22682 45.7414 7.44525 45.4549 7.56267 45.0673C7.68531 44.6625 7.66649 44.2901 7.50621 43.95C7.34594 43.61 7.03847 43.3522 6.5838 43.1769L5.73056 45.9933Z" fill="white"/>
<path d="M7.7745 52.3906C7.6184 53.3317 7.25869 54.0429 6.69537 54.5242C6.13057 55.0143 5.45019 55.2664 4.65421 55.2803L5.00764 53.1495C5.31981 53.1375 5.57865 53.0344 5.78415 52.8405C5.99706 52.6568 6.13076 52.4008 6.18524 52.0723C6.22795 51.8148 6.20264 51.6099 6.10931 51.4576C6.02486 51.3067 5.88053 51.2144 5.67633 51.1805C5.4455 51.1422 5.25249 51.2334 5.09731 51.4539C4.94066 51.6834 4.76118 52.0504 4.55888 52.5551C4.33146 53.1012 4.11653 53.5445 3.91411 53.885C3.72055 54.2269 3.44632 54.5053 3.0914 54.7201C2.73648 54.9349 2.29711 54.9988 1.77329 54.9119C1.34714 54.8413 0.988952 54.6633 0.698744 54.3779C0.408535 54.0926 0.206288 53.717 0.0920019 53.251C-0.022284 52.785 -0.0300944 52.2546 0.0685708 51.6598C0.234976 50.6566 0.590205 49.8899 1.13426 49.3598C1.67831 48.8297 2.37422 48.5665 3.22199 48.5703L2.85752 50.7677C2.53201 50.7502 2.26577 50.8429 2.05879 51.0457C1.85034 51.2575 1.7152 51.5498 1.65335 51.9227C1.61064 52.1801 1.63595 52.385 1.72928 52.5373C1.83149 52.6911 1.98025 52.7842 2.17557 52.8166C2.43304 52.8593 2.63566 52.7652 2.78344 52.5343C2.93862 52.3137 3.124 51.9385 3.3396 51.4087C3.54632 50.8774 3.74572 50.4452 3.9378 50.1122C4.12988 49.7791 4.39376 49.5082 4.72945 49.2993C5.07402 49.0919 5.50378 49.0309 6.01872 49.1163C6.68459 49.2268 7.17975 49.5689 7.50422 50.1427C7.83756 50.718 7.92765 51.4673 7.7745 52.3906Z" fill="white"/>
<path d="M6.73675 74.6033C6.80881 74.8914 6.83067 75.1642 6.80232 75.4218C6.77397 75.6794 6.7118 75.9686 6.61579 76.2895C6.54815 76.5383 6.50234 76.7446 6.47834 76.9083C6.45654 77.0807 6.46528 77.2455 6.50459 77.4027C6.56355 77.6384 6.67816 77.7999 6.84842 77.8872C7.0296 77.981 7.27843 78.0116 7.59492 77.9788L8.01746 79.6682C7.0025 79.7643 6.20252 79.6443 5.61752 79.3083C5.03251 78.9722 4.65485 78.4637 4.48452 77.7827C4.41465 77.5033 4.39061 77.2403 4.41241 76.9936C4.44294 76.7448 4.50293 76.4468 4.59239 76.0998C4.66439 75.8313 4.71239 75.6152 4.73638 75.4515C4.76255 75.2965 4.75599 75.1404 4.71668 74.9833C4.65991 74.7563 4.54093 74.5959 4.35976 74.502C4.18731 74.406 3.94175 74.37 3.62308 74.3941L3.20381 72.7178C4.22095 72.6304 5.02093 72.7503 5.60375 73.0777C6.18876 73.4138 6.56643 73.9223 6.73675 74.6033Z" fill="white"/>
<path d="M12.3024 96.6143C15.667 97.6358 17.8271 97.7787 18.7826 97.043C19.3674 96.5929 19.4649 96.1146 19.0751 95.6083C18.8555 95.3231 18.5937 95.1896 18.2897 95.2078C17.9912 95.2332 17.6261 95.4007 17.1944 95.7103L15.8192 93.9239C16.772 93.2585 17.6779 93.0041 18.5367 93.1607C19.3955 93.3173 20.1268 93.7878 20.7307 94.5722C21.362 95.3923 21.6301 96.1684 21.5349 96.9004C21.4452 97.6396 21.0688 98.2644 20.4056 98.775C19.6711 99.3404 18.734 99.6133 17.5943 99.5934C16.4617 99.568 15.351 99.3498 14.2622 98.9387L16.5598 101.923L15.0836 103.06L10.9332 97.6684L12.3024 96.6143Z" fill="white"/>
<path d="M26.4066 103.597L23.3603 100.572L22.0002 101.942C22.2865 101.922 22.589 101.988 22.9077 102.139C23.2392 102.291 23.5454 102.506 23.8264 102.785C24.2798 103.235 24.5584 103.715 24.662 104.224C24.772 104.726 24.7324 105.219 24.5432 105.704C24.354 106.188 24.0565 106.634 23.6507 107.043C22.9151 107.784 22.1242 108.165 21.2779 108.188C20.438 108.203 19.6412 107.837 18.8876 107.089C18.3767 106.582 18.0216 106.051 17.8224 105.498C17.6295 104.939 17.5925 104.395 17.7115 103.867C17.8306 103.338 18.0961 102.853 18.5082 102.413L20.108 104.001C19.9243 104.25 19.833 104.514 19.834 104.794C19.8414 105.081 19.9696 105.348 20.2187 105.595C20.506 105.88 20.8119 106 21.1363 105.954C21.4671 105.915 21.7846 105.742 22.089 105.436C22.3807 105.142 22.5292 104.839 22.5344 104.527C22.5397 104.215 22.405 103.923 22.1304 103.65C21.9196 103.441 21.6964 103.315 21.4608 103.271C21.2316 103.221 21.0185 103.244 20.8215 103.34L19.2313 101.761L23.3022 97.6611L27.8333 102.16L26.4066 103.597Z" fill="white"/>
<path d="M29.8574 111.331L27.999 109.917L26.5602 111.807L24.7876 110.458L26.2264 108.568L24.368 107.154L25.6514 105.467L27.5099 106.881L28.9569 104.98L30.7294 106.329L29.2824 108.23L31.1409 109.644L29.8574 111.331Z" fill="white"/>
<path d="M39.5179 112.059C40.0747 112.334 40.5011 112.72 40.7973 113.218C41.1055 113.712 41.2551 114.283 41.2461 114.931C41.2492 115.575 41.0753 116.252 40.7245 116.962C40.3777 117.664 39.9456 118.213 39.4283 118.61C38.919 119.011 38.3728 119.243 37.7895 119.306C37.2182 119.365 36.6543 119.257 36.0975 118.982C35.5812 118.727 35.1952 118.39 34.9397 117.973C34.6841 117.556 34.5713 117.103 34.6012 116.616L32.4066 121.058L30.337 120.035L35.2643 110.063L37.3339 111.085L36.7299 112.308C37.0987 111.988 37.5265 111.803 38.0132 111.752C38.5 111.702 39.0016 111.804 39.5179 112.059ZM37.9553 113.546C37.5196 113.33 37.0868 113.302 36.6569 113.461C36.2391 113.616 35.9046 113.948 35.6535 114.456C35.4063 114.956 35.3461 115.423 35.4729 115.858C35.6078 116.296 35.8931 116.622 36.3288 116.838C36.7726 117.057 37.1994 117.087 37.6092 116.928C38.027 116.773 38.3635 116.437 38.6186 115.921C38.8738 115.405 38.9359 114.933 38.8051 114.507C38.6824 114.085 38.3991 113.765 37.9553 113.546Z" fill="white"/>
<path d="M44.6193 115.698C45.0423 115.36 45.5107 115.137 46.0244 115.03C46.5467 114.926 47.0585 114.962 47.5599 115.136L46.7471 117.469L46.1224 117.251C45.5445 117.05 45.0512 117.016 44.6424 117.15C44.242 117.287 43.9397 117.649 43.7354 118.235L42.6072 121.473L40.4273 120.714L42.9059 113.6L45.0857 114.36L44.6193 115.698Z" fill="white"/>
<path d="M51.5281 116.015C52.2576 116.175 52.8743 116.472 53.378 116.905C53.8925 117.331 54.2495 117.866 54.4492 118.509C54.6577 119.153 54.6779 119.858 54.5098 120.623C54.3418 121.387 54.028 122.019 53.5684 122.517C53.1176 123.017 52.5683 123.357 51.9206 123.537C51.2836 123.71 50.6003 123.717 49.8707 123.556C49.1412 123.396 48.5192 123.103 48.0047 122.676C47.4922 122.241 47.1317 121.701 46.9233 121.056C46.7236 120.414 46.7078 119.71 46.8758 118.945C47.0439 118.18 47.3533 117.548 47.8041 117.048C48.2636 116.55 48.8163 116.216 49.4621 116.044C50.1099 115.864 50.7985 115.854 51.5281 116.015ZM51.0993 117.966C50.6686 117.871 50.269 117.949 49.9006 118.2C49.5429 118.444 49.2994 118.86 49.17 119.449C49.0406 120.038 49.0871 120.518 49.3095 120.89C49.5408 121.263 49.8718 121.497 50.3025 121.592C50.7332 121.686 51.1274 121.612 51.485 121.368C51.8427 121.124 52.0862 120.708 52.2157 120.119C52.3451 119.53 52.2986 119.05 52.0761 118.678C51.8556 118.298 51.53 118.061 51.0993 117.966Z" fill="white"/>
<path d="M58.5426 117.021C59.1171 117.063 59.6013 117.229 59.9952 117.519C60.3892 117.809 60.6641 118.186 60.8199 118.648L61.0971 114.838L63.3994 115.005L62.6746 124.969L60.3723 124.801L60.4712 123.441C60.2501 123.876 59.9236 124.209 59.4918 124.439C59.06 124.67 58.5568 124.764 57.9824 124.722C57.363 124.677 56.8176 124.484 56.3461 124.143C55.8843 123.793 55.531 123.317 55.2862 122.712C55.0504 122.109 54.9609 121.416 55.0177 120.635C55.0752 119.845 55.2639 119.173 55.584 118.619C55.9136 118.057 56.3319 117.64 56.8388 117.371C57.3553 117.092 57.9233 116.976 58.5426 117.021ZM59.1362 119.094C58.6425 119.058 58.2313 119.191 57.9027 119.492C57.583 119.793 57.4022 120.231 57.3604 120.806C57.3186 121.38 57.4341 121.84 57.7068 122.184C57.9884 122.53 58.3761 122.72 58.8698 122.756C59.3545 122.792 59.7615 122.654 60.0908 122.344C60.4292 122.035 60.6186 121.602 60.659 121.046C60.7002 120.48 60.5754 120.025 60.2848 119.679C60.0038 119.324 59.6209 119.129 59.1362 119.094Z" fill="white"/>
<path d="M71.4604 116.813L72.0185 124.325L69.703 124.497L69.602 123.138C69.4193 123.593 69.1222 123.967 68.7107 124.26C68.3083 124.551 67.8243 124.718 67.2589 124.76C66.3973 124.824 65.6894 124.588 65.1352 124.052C64.5899 123.514 64.2799 122.743 64.2052 121.738L63.8811 117.376L66.1697 117.206L66.4728 121.285C66.5108 121.797 66.6706 122.187 66.9522 122.455C67.2421 122.713 67.6115 122.825 68.0602 122.792C68.5269 122.757 68.8839 122.582 69.1311 122.266C69.3783 121.949 69.4816 121.518 69.441 120.97L69.1449 116.985L71.4604 116.813Z" fill="white"/>
<path d="M75.4165 115.795C76.3661 115.588 77.2194 115.678 77.9764 116.066C78.7314 116.444 79.2922 117.073 79.6588 117.951L77.2715 118.472C77.1321 118.17 76.9333 117.956 76.6751 117.828C76.417 117.7 76.1208 117.673 75.7867 117.745C75.391 117.832 75.1002 118.061 74.9143 118.433C74.7264 118.797 74.6977 119.277 74.8281 119.875C74.9585 120.473 75.1858 120.902 75.5098 121.163C75.8319 121.415 76.1908 121.498 76.5865 121.412C76.9206 121.339 77.1784 121.191 77.3599 120.967C77.5413 120.743 77.6327 120.465 77.634 120.133L80.0213 119.613C80.0537 120.564 79.8065 121.373 79.2797 122.04C78.751 122.699 78.0118 123.132 77.0622 123.339C76.3412 123.497 75.6667 123.487 75.0387 123.311C74.4176 123.124 73.8865 122.779 73.4453 122.277C73.0041 121.774 72.7 121.141 72.5332 120.376C72.3644 119.602 72.3725 118.9 72.5575 118.27C72.7494 117.63 73.0941 117.098 73.5916 116.677C74.0872 116.246 74.6955 115.952 75.4165 115.795Z" fill="white"/>
<path d="M85.4374 118.651L86.0817 120.528L85.0985 120.866C84.2644 121.152 83.5431 121.171 82.9347 120.924C82.3318 120.664 81.8668 120.058 81.5396 119.105L80.6411 116.487L79.6835 116.816L79.0524 114.977L80.01 114.648L79.4095 112.899L81.5929 112.15L82.1933 113.899L83.6234 113.408L84.2545 115.247L82.8244 115.738L83.7361 118.393C83.8325 118.674 83.955 118.851 84.1036 118.924C84.2608 118.993 84.4756 118.982 84.748 118.888L85.4374 118.651Z" fill="white"/>
<path d="M87.0342 111.752C87.8972 111.346 88.6868 111.237 89.403 111.427C90.1273 111.613 90.7215 112.03 91.1855 112.676L89.2317 113.597C89.0442 113.347 88.8123 113.193 88.5359 113.134C88.2638 113.063 87.9771 113.099 87.6759 113.241C87.4398 113.352 87.2857 113.489 87.2134 113.653C87.1373 113.808 87.1434 113.979 87.2316 114.166C87.3314 114.378 87.5161 114.485 87.7858 114.487C88.0636 114.486 88.4676 114.425 88.9978 114.304C89.5764 114.181 90.0632 114.106 90.4584 114.079C90.8497 114.043 91.2346 114.111 91.6131 114.281C91.9916 114.45 92.294 114.776 92.5204 115.256C92.7045 115.647 92.7617 116.042 92.692 116.443C92.6223 116.844 92.4282 117.224 92.1099 117.583C91.7915 117.942 91.3596 118.25 90.8142 118.507C89.8942 118.941 89.0616 119.084 88.3162 118.938C87.5708 118.792 86.9586 118.369 86.4797 117.67L88.4947 116.72C88.6653 116.998 88.8929 117.164 89.1775 117.219C89.4702 117.27 89.7875 117.215 90.1294 117.054C90.3655 116.943 90.5197 116.806 90.5919 116.642C90.6603 116.471 90.6523 116.295 90.5679 116.116C90.4567 115.88 90.2641 115.767 89.9901 115.777C89.7204 115.774 89.3063 115.835 88.7479 115.959C88.1933 116.091 87.7244 116.173 87.3412 116.204C86.958 116.235 86.5851 116.172 86.2224 116.015C85.8559 115.849 85.5614 115.531 85.3389 115.058C85.0511 114.448 85.0511 113.846 85.3386 113.253C85.6224 112.652 86.1876 112.151 87.0342 111.752Z" fill="white"/>
<path d="M105.897 99.9771C106.094 99.754 106.306 99.5809 106.534 99.4578C106.762 99.3347 107.035 99.2214 107.353 99.118C107.597 99.0321 107.792 98.9525 107.941 98.8792C108.095 98.7991 108.225 98.6982 108.332 98.5765C108.493 98.394 108.561 98.2079 108.536 98.0182C108.51 97.8158 108.393 97.5937 108.186 97.352L109.336 96.0439C109.992 96.8242 110.348 97.5505 110.404 98.2229C110.461 98.8952 110.257 99.495 109.794 100.022C109.603 100.239 109.401 100.408 109.185 100.53C108.963 100.647 108.684 100.767 108.348 100.89C108.086 100.984 107.881 101.067 107.733 101.14C107.59 101.207 107.466 101.301 107.359 101.423C107.204 101.599 107.14 101.788 107.166 101.99C107.185 102.187 107.295 102.409 107.496 102.658L106.355 103.955C105.705 103.168 105.349 102.442 105.287 101.777C105.23 101.104 105.434 100.504 105.897 99.9771Z" fill="white"/>
<path d="M115.441 81.385L113.397 80.685L114.649 77.0326L123.677 80.1259L122.89 82.4246L115.904 80.0313L115.441 81.385Z" fill="white"/>
<path d="M118.123 70.4589C118.283 69.5186 118.647 68.8092 119.212 68.3307C119.78 67.8434 120.461 67.5947 121.257 67.5848L120.893 69.7138C120.581 69.7243 120.322 69.826 120.115 70.019C119.901 70.2015 119.766 70.4569 119.71 70.7851C119.666 71.0424 119.691 71.2474 119.783 71.4002C119.867 71.5515 120.011 71.6446 120.215 71.6794C120.445 71.7189 120.639 71.6287 120.795 71.4089C120.953 71.1803 121.134 70.8141 121.339 70.3104C121.569 69.7655 121.786 69.3233 121.99 68.9838C122.186 68.6429 122.461 68.3659 122.817 68.1529C123.173 67.9398 123.613 67.8781 124.136 67.9676C124.562 68.0404 124.919 68.2202 125.208 68.507C125.497 68.7937 125.697 69.1704 125.809 69.6369C125.921 70.1034 125.926 70.6339 125.825 71.2282C125.653 72.2306 125.294 72.9955 124.748 73.5229C124.201 74.0502 123.504 74.3099 122.656 74.3019L123.031 72.1064C123.357 72.1255 123.624 72.0341 123.832 71.8323C124.041 71.6216 124.178 71.33 124.241 70.9574C124.285 70.7002 124.261 70.4952 124.168 70.3424C124.067 70.1881 123.919 70.0942 123.724 70.0609C123.466 70.0169 123.263 70.11 123.114 70.3401C122.958 70.5599 122.771 70.9342 122.553 71.463C122.343 71.9932 122.142 72.4244 121.948 72.7565C121.754 73.0886 121.489 73.3582 121.152 73.5654C120.807 73.7711 120.376 73.8299 119.862 73.7419C119.197 73.6281 118.703 73.2835 118.382 72.7081C118.051 72.1312 117.965 71.3814 118.123 70.4589Z" fill="white"/>
<path d="M119.092 58.8949L126.62 59.1581L126.539 61.4786L125.176 61.431C125.61 61.6622 125.949 61.9983 126.195 62.4391C126.441 62.871 126.554 63.3702 126.534 63.9368C126.504 64.8003 126.192 65.4782 125.598 65.9708C125.005 66.4543 124.205 66.6785 123.198 66.6433L118.826 66.4904L118.907 64.1969L122.994 64.3399C123.507 64.3578 123.912 64.2414 124.209 63.9906C124.497 63.7305 124.649 63.3756 124.665 62.9259C124.681 62.4582 124.546 62.0843 124.258 61.8041C123.971 61.5239 123.553 61.3742 123.004 61.355L119.011 61.2154L119.092 58.8949Z" fill="white"/>
<path d="M118.367 53.5931C118.298 52.976 118.392 52.4084 118.651 51.8903C118.9 51.3642 119.299 50.93 119.85 50.5874C120.39 50.237 121.053 50.0175 121.84 49.9292C122.619 49.8418 123.314 49.9085 123.928 50.1294C124.54 50.3414 125.031 50.6757 125.399 51.1325C125.757 51.5813 125.971 52.1142 126.04 52.7313C126.105 53.3037 126.03 53.8101 125.817 54.2506C125.604 54.6912 125.284 55.0304 124.858 55.2685L129.781 54.7156L130.039 57.0095L118.985 58.251L118.727 55.957L120.082 55.8048C119.614 55.6672 119.227 55.4073 118.922 55.025C118.616 54.6428 118.431 54.1654 118.367 53.5931ZM120.462 54.1049C120.516 54.5878 120.726 54.9673 121.092 55.2431C121.449 55.511 121.908 55.6133 122.472 55.5501C123.026 55.4878 123.452 55.286 123.749 54.9448C124.044 54.5946 124.165 54.1781 124.111 53.6951C124.056 53.2032 123.85 52.8278 123.495 52.5688C123.139 52.3009 122.675 52.1991 122.103 52.2634C121.53 52.3277 121.1 52.5299 120.812 52.8701C120.524 53.2014 120.407 53.613 120.462 54.1049Z" fill="white"/>
<path d="M119.547 42.1624C119.73 42.1149 119.936 42.0846 120.165 42.0717L121.478 47.1283C122.02 46.9597 122.38 46.7175 122.559 46.4015C122.728 46.0879 122.762 45.735 122.66 45.343C122.574 45.012 122.42 44.7591 122.198 44.5843C121.976 44.4095 121.726 44.3212 121.446 44.3193L120.832 41.9543C121.371 41.9167 121.887 42.006 122.38 42.222C122.865 42.4403 123.289 42.7671 123.653 43.2026C124.008 43.6403 124.265 44.1641 124.423 44.7738C124.609 45.4881 124.626 46.1624 124.474 46.7968C124.312 47.4248 123.988 47.969 123.503 48.4296C123.019 48.8902 122.397 49.2188 121.639 49.4155C120.873 49.6145 120.171 49.634 119.535 49.4738C118.887 49.3072 118.343 48.9836 117.902 48.503C117.452 48.0246 117.135 47.4283 116.949 46.714C116.762 45.991 116.745 45.3167 116.898 44.691C117.052 44.0653 117.361 43.5343 117.824 43.0979C118.276 42.6551 118.851 42.3433 119.547 42.1624ZM119.794 44.511C119.313 44.6267 118.99 44.8501 118.825 45.1811C118.649 45.5058 118.612 45.8641 118.713 46.2561C118.82 46.6655 119.03 46.9736 119.344 47.1803C119.658 47.387 120.054 47.4467 120.534 47.3595L119.794 44.511Z" fill="white"/>
<path d="M116.268 39.9122C115.736 39.8104 115.262 39.5989 114.848 39.2775C114.429 38.9478 114.124 38.5356 113.931 38.0408L116.233 37.1443L116.473 37.7606C116.695 38.3309 116.99 38.728 117.357 38.9519C117.721 39.1675 118.193 39.1626 118.771 38.9372L121.966 37.6927L122.804 39.8437L115.785 42.5776L114.947 40.4266L116.268 39.9122Z" fill="white"/>
<path d="M110.81 32.3507C110.509 31.8599 110.361 31.3698 110.367 30.8805C110.373 30.3911 110.516 29.9443 110.795 29.5402L109.634 30.2536L108.433 28.2979L114.852 24.3565L116.053 26.3122L114.891 27.0256C115.378 26.9589 115.841 27.0336 116.28 27.2498C116.719 27.4661 117.089 27.8196 117.391 28.3104C117.715 28.8396 117.877 29.3952 117.875 29.9771C117.861 30.556 117.68 31.1213 117.332 31.6728C116.98 32.2166 116.47 32.6934 115.803 33.103C115.128 33.5174 114.472 33.7564 113.835 33.8201C113.186 33.8807 112.604 33.784 112.089 33.53C111.561 33.273 111.135 32.8799 110.81 32.3507ZM112.147 30.6585C112.406 31.0803 112.754 31.3368 113.19 31.4281C113.622 31.5116 114.083 31.4027 114.574 31.1014C115.064 30.8 115.37 30.438 115.491 30.0154C115.607 29.5851 115.535 29.1591 115.276 28.7372C115.022 28.3231 114.673 28.0728 114.229 27.9862C113.781 27.892 113.319 27.9909 112.843 28.2829C112.36 28.5795 112.063 28.9468 111.951 29.3848C111.828 29.8198 111.893 30.2444 112.147 30.6585Z" fill="white"/>
<path d="M104.827 24.193C104.428 23.7176 104.192 23.1926 104.12 22.6179C104.036 22.0421 104.128 21.4592 104.397 20.8693C104.652 20.2782 105.083 19.7279 105.689 19.2183C106.289 18.7145 106.905 18.3847 107.538 18.2287C108.165 18.0659 108.759 18.0726 109.318 18.2488C109.865 18.424 110.339 18.7492 110.738 19.2246C111.109 19.6655 111.327 20.1283 111.394 20.6132C111.46 21.098 111.382 21.5575 111.159 21.9917L114.952 18.804L116.437 20.571L107.922 27.7283L106.437 25.9612L107.481 25.0839C107.015 25.2288 106.548 25.2268 106.082 25.0778C105.616 24.9288 105.198 24.6339 104.827 24.193ZM106.855 23.4584C107.168 23.8304 107.553 24.0299 108.01 24.0567C108.455 24.0825 108.895 23.913 109.329 23.5482C109.756 23.1891 109.998 22.7854 110.056 22.3369C110.109 21.8815 109.978 21.4678 109.666 21.0958C109.347 20.7169 108.968 20.518 108.529 20.4991C108.084 20.4734 107.642 20.6458 107.201 21.0164C106.76 21.387 106.514 21.7937 106.463 22.2363C106.406 22.6722 106.536 23.0795 106.855 23.4584Z" fill="white"/>
<path d="M98.8858 18.4144C98.4204 18.0034 98.1098 17.5189 97.9541 16.9611C97.7857 16.4041 97.7906 15.814 97.9687 15.1909C98.1341 14.5686 98.479 13.9606 99.0033 13.367C99.5216 12.7802 100.082 12.3629 100.685 12.1151C101.282 11.8613 101.87 11.7803 102.449 11.8718C103.016 11.9642 103.532 12.216 103.998 12.627C104.429 13.0083 104.714 13.4338 104.851 13.9035C104.989 14.3731 104.979 14.8392 104.823 15.3015L108.103 11.5883L109.833 13.1165L102.469 21.4536L100.739 19.9254L101.642 18.9035C101.202 19.1156 100.741 19.1825 100.258 19.1041C99.7749 19.0256 99.3175 18.7957 98.8858 18.4144ZM100.783 17.3883C101.147 17.71 101.557 17.8503 102.014 17.8093C102.458 17.769 102.867 17.5364 103.243 17.1115C103.612 16.6933 103.792 16.2581 103.783 15.8059C103.768 15.3479 103.578 14.9579 103.214 14.6362C102.843 14.3086 102.439 14.1678 102.001 14.2141C101.558 14.2543 101.145 14.4903 100.764 14.922C100.382 15.3537 100.199 15.7922 100.214 16.2376C100.222 16.6771 100.412 17.0606 100.783 17.3883Z" fill="white"/>
<path d="M80.8331 6.32693C80.5495 6.23869 80.3051 6.11551 80.0998 5.95738C79.8945 5.79925 79.6798 5.59577 79.4556 5.34694C79.2782 5.15978 79.1258 5.0134 78.9984 4.9078C78.8625 4.79951 78.7172 4.72131 78.5625 4.67318C78.3305 4.60098 78.1329 4.61491 77.9698 4.71497C77.7955 4.82095 77.64 5.01763 77.5035 5.30502L75.8407 4.78762C76.2863 3.87064 76.8047 3.24966 77.3959 2.92467C77.9871 2.59968 78.6179 2.54146 79.2881 2.75003C79.5631 2.83559 79.8003 2.9518 79.9997 3.09866C80.1963 3.25412 80.4197 3.46027 80.6696 3.71713C80.8615 3.91822 81.0212 4.07157 81.1485 4.17718C81.2673 4.28011 81.404 4.35565 81.5587 4.40378C81.7821 4.4733 81.981 4.45507 82.1554 4.34909C82.3271 4.25171 82.4855 4.06066 82.6306 3.77594L84.2805 4.28933C83.8264 5.20364 83.308 5.82462 82.7253 6.15229C82.1341 6.47728 81.5033 6.53549 80.8331 6.32693Z" fill="white"/>
</svg>
