<svg width="47" height="50" viewBox="0 0 47 50" fill="none" xmlns="http://www.w3.org/2000/svg">
<path d="M46.9732 25.9028C46.9734 30.4136 45.6749 34.8291 43.2328 38.6217C40.7907 42.4142 37.3084 45.4235 33.2018 47.2899V23.4749C33.1997 21.6294 32.4659 19.86 31.1613 18.5546C29.8566 17.2493 28.0876 16.5144 26.2421 16.5113H12.4987L12.2347 17.1672C12.1027 17.4872 9.11087 25.0269 12.3187 30.0506L12.9627 31.0826L13.8867 30.2826C13.9267 30.2466 14.9306 29.4587 17.0265 29.4587H17.4265V48.5898C12.5393 47.2832 8.20431 44.434 5.06629 40.466C1.92827 36.4979 0.154825 31.623 0.00967739 26.5662C-0.13547 21.5094 1.35544 16.5408 4.26068 12.3993C7.16592 8.25782 11.3303 5.16466 16.1346 3.57983C15.607 4.6739 15.3335 5.87306 15.3346 7.08768C15.3336 8.31203 15.6084 9.52088 16.1384 10.6246C16.6684 11.7283 17.4401 12.6984 18.3963 13.4632C19.3524 14.2279 20.4685 14.7675 21.6617 15.042C22.8548 15.3165 24.0945 15.3189 25.2887 15.0489C26.4829 14.7789 27.601 14.2435 28.5601 13.4824C29.5191 12.7213 30.2945 11.754 30.8287 10.6523C31.3629 9.55066 31.6422 8.34285 31.6458 7.11851C31.6495 5.89416 31.3775 4.68469 30.8499 3.57983C35.5437 5.13214 39.6284 8.12503 42.5231 12.1328C45.4178 16.1405 46.975 20.959 46.9732 25.9028V25.9028Z" fill="white"/>
<path d="M23.4823 14.1914C27.4011 14.1914 30.578 11.0145 30.578 7.09568C30.578 3.17685 27.4011 0 23.4823 0C19.5634 0 16.3866 3.17685 16.3866 7.09568C16.3866 11.0145 19.5634 14.1914 23.4823 14.1914Z" fill="url(#paint0_linear)"/>
<path d="M32.1418 27.1108V47.7419C27.7977 49.4563 23.0426 49.8433 18.4784 48.8538V27.1108H32.1418Z" fill="url(#paint1_linear)"/>
<path d="M13.2109 17.5672C13.2109 17.5672 10.2551 24.8629 13.2109 29.4787C13.2109 29.4787 19.2107 24.3389 32.1461 36.6543V23.4789C32.1461 21.9124 31.5243 20.41 30.4174 19.3015C29.3105 18.1931 27.8089 17.5693 26.2424 17.5672H13.2109Z" fill="url(#paint2_linear)"/>
<defs>
<linearGradient id="paint0_linear" x1="16.3426" y1="2.2959" x2="31.6899" y2="12.6154" gradientUnits="userSpaceOnUse">
<stop stop-color="#CD0102"/>
<stop offset="0.29" stop-color="#CD0102"/>
<stop offset="0.78" stop-color="#F20205"/>
</linearGradient>
<linearGradient id="paint1_linear" x1="23.3342" y1="13.9554" x2="26.494" y2="52.4016" gradientUnits="userSpaceOnUse">
<stop offset="0.29" stop-color="#CD0102"/>
<stop offset="0.56" stop-color="#CD0102"/>
<stop offset="0.78" stop-color="#F20205"/>
</linearGradient>
<linearGradient id="paint2_linear" x1="6.50324" y1="18.1352" x2="35.8859" y2="29.6227" gradientUnits="userSpaceOnUse">
<stop offset="0.28" stop-color="#CD0102"/>
<stop offset="0.43" stop-color="#CD0102"/>
<stop offset="0.71" stop-color="#F20205"/>
</linearGradient>
</defs>
</svg>
